<?xml version="1.0" encoding="UTF-8" standalone="no"?>
<!DOCTYPE svg PUBLIC "-//W3C//DTD SVG 1.1//EN" "http://www.w3.org/Graphics/SVG/1.1/DTD/svg11.dtd">
<svg width="100%" height="100%" viewBox="0 0 472 688" version="1.1" xmlns="http://www.w3.org/2000/svg" xmlns:xlink="http://www.w3.org/1999/xlink" xml:space="preserve" xmlns:serif="http://www.serif.com/" style="fill-rule:evenodd;clip-rule:evenodd;stroke-linecap:round;stroke-linejoin:round;stroke-miterlimit:1.5;">
    <g transform="matrix(0.275,0,0,0.275,0,0)">
        <path d="M732.49,374.45C732.49,374.45 734.663,373.356 735.156,372.607C735.649,371.859 740.628,370.554 744.635,370.495C748.643,370.435 752.892,374.523 752.892,374.523L756.951,386.203L757.821,402.275L757.585,420.661L756.525,442.801L755.113,459.799L751.763,474.546C751.763,474.546 749.656,495.833 748.493,499.277C747.33,502.721 750.725,513.77 754.72,515.826C758.715,517.882 760.644,530.087 760.644,530.087L760.018,561.684L757.611,606.685L752.336,649.497L746.994,687.279L740.657,745.83L737.893,793.148L733.52,822.37L727.459,866.686L720.53,942.656C720.53,942.656 718.046,980.792 717.536,984.122C717.027,987.452 711.973,1038.33 711.973,1038.33L708.901,1081L703.739,1131.43L700.673,1169.16L696.168,1226.95L692.1,1265.41L686.131,1336.4L683.083,1384.64L678.196,1431.62L675.009,1469.59L671.996,1524.96C671.996,1524.96 670.626,1556.57 670.137,1574.58C669.648,1592.58 683.687,1601.26 683.687,1601.26L696.266,1617.76L714.217,1640.17L734.77,1665.82L755.932,1697.08L771.271,1714.94C771.271,1714.94 781.358,1733.48 786.778,1743.9C792.199,1754.31 797.965,1757.16 812.731,1767.72C827.497,1778.27 828.435,1778.1 832.025,1796.73C835.615,1815.35 829.846,1835.27 829.846,1835.27L813.103,1874.46L801.492,1916.35L793.48,1983.48L788.599,2027.37L781.707,2098.89L779.805,2125.36L776.383,2173.1L778.32,2211.37L780.038,2237.69C780.038,2237.69 788.164,2257.18 789.556,2267.44C790.947,2277.7 795.722,2280.56 792.088,2288.71C788.454,2296.86 776.644,2304.15 776.644,2304.15L758.061,2307.82L735.566,2303.87L713.47,2301.27L683.33,2298.97L648.714,2295.65C648.714,2295.65 609.34,2292.54 607.737,2292.74C606.134,2292.93 574.31,2291.49 574.31,2291.49L515.553,2283.22L480.997,2280.34L436.899,2275.78L399.941,2271.41L359.582,2269.74L325.608,2263.35C325.608,2263.35 298.68,2256.89 292.562,2254.79C286.444,2252.7 286.844,2255.04 280.381,2249.12C273.919,2243.19 281.231,2225.67 281.231,2225.67L290.731,2205.23L305.706,2185.47L314.415,2163.69L327.584,2129.3C327.584,2129.3 334.759,2110.08 334.575,2107.96C334.392,2105.83 340.11,2084.32 340.11,2084.32L344.907,2057.11L346.946,2020.66L348.825,1976.13L347.469,1943.94L346.506,1903.56C346.506,1903.56 341.96,1864.09 343.367,1856.59C344.775,1849.08 333.974,1813.61 330.397,1805.67C326.82,1797.74 327.7,1773.4 331.229,1760.58C334.759,1747.77 352.589,1737.53 352.589,1737.53C352.589,1737.53 365.418,1730.97 382.505,1728.48C399.592,1725.98 405.999,1715.04 405.999,1715.04L423.958,1695.04L445.888,1676.27L468.846,1654.79L495.853,1631.8L524.438,1609.33C524.438,1609.33 542.673,1592.51 548.835,1587.14C554.996,1581.78 555.647,1567.94 555.647,1567.94L559.292,1546.06L563.126,1514.03L567.091,1475.65L573.619,1435.04L578.534,1401.45L583.12,1376.61L586.147,1343.4L587.058,1311.03L590.54,1279.19L592.123,1255.18L593.262,1228.2L598.519,1184.06L607.572,1132.18L608.848,1105.87L614.747,1069.61L616.192,1034.28L621.482,1007.55L624.658,982.447C624.658,982.447 629.377,947.663 627.485,946.703C625.592,945.742 632.621,919.611 632.621,919.611L635.265,894.278C635.265,894.278 638.716,865.302 638.201,863.624C637.686,861.946 642.162,826.537 642.162,826.537C642.162,826.537 646.109,800.839 645.39,799.996C644.672,799.153 650.062,780.544 650.062,780.544L651.679,747.344L656.914,712.207L660.883,691.742L664.749,671.504L667.647,643.877L669.334,617.215L678.006,563.121C678.006,563.121 680.073,552.577 682.884,536.702C685.694,520.827 689.23,517.693 701.879,508.863C714.528,500.033 713.549,483.231 713.549,483.231L715.912,460.434L724.456,420.386L732.49,374.45ZM530.556,1662.91L485.827,1710.85L464.928,1731.49C464.928,1731.49 441.802,1752.3 435.621,1783.6C429.439,1814.9 430.856,1851.55 432.868,1858.08C434.88,1864.61 436.105,1970.53 433.757,1977.88C431.409,1985.24 430.11,2070.59 428.039,2077.73C425.968,2084.86 424.4,2142.05 424.809,2144.6C425.218,2147.15 427.329,2171.02 446.254,2168.74C465.178,2166.47 477.755,2168.8 477.755,2168.8C477.755,2168.8 495.828,2169.93 501.609,2138.37C507.389,2106.81 510.845,2069.66 510.845,2069.66L520.636,2002.71L526.756,1930.11L534.936,1851.39L541.925,1802.68L544.908,1760.96L551.126,1721.35C551.126,1721.35 557.547,1700.44 558.718,1696.17C559.888,1691.9 558.787,1678.05 555.921,1675.35C553.055,1672.64 548.146,1662.76 543.251,1661.8C538.355,1660.84 530.556,1662.91 530.556,1662.91ZM658.889,1698.16L653.971,1723.2L649.707,1757.58L647.092,1792.68L642.874,1846.16L640.894,1876L636.246,1910.4L628.505,1992.89C628.505,1992.89 623.55,2051.49 620.98,2057.57C618.41,2063.64 615.545,2119.3 615.253,2124.24C614.961,2129.17 612.454,2146.24 611.599,2160.44C610.745,2174.65 607.343,2181.26 622.075,2183.96C636.806,2186.66 654.666,2186.05 656.786,2186.67C658.907,2187.3 671.917,2189.57 673.013,2188.11C674.109,2186.66 689.775,2189.28 689.288,2166.95C688.8,2144.63 693.617,2104.7 693.617,2104.7C693.617,2104.7 699.334,2047.38 699.339,2048.92C699.344,2050.47 711.602,1980.54 711.602,1980.54L726.496,1903.07L736.216,1835.18C736.216,1835.18 742.987,1803.36 740.36,1791.8C737.733,1780.25 738.072,1773.26 729.531,1747.91C720.991,1722.56 714.274,1719.72 709.294,1712.31C704.314,1704.91 696.377,1694.09 686.481,1688.45C676.586,1682.8 675.039,1679.23 668.226,1680.17C661.413,1681.1 661.037,1687.84 661.487,1689.77C661.937,1691.7 658.889,1698.16 658.889,1698.16Z" style="fill:rgb(241,0,0);stroke:black;stroke-width:12.11px;"/>
    </g>
</svg>
